<?xml version="1.0" encoding="UTF-8"?>
<svg width="500px" height="500px" viewBox="0 0 500 500" version="1.1" xmlns="http://www.w3.org/2000/svg" xmlns:xlink="http://www.w3.org/1999/xlink">
    <title>Frame</title>
    <defs>
        <path d="M0,0 L500,0 L500,500 L0,500 L0,0 Z" id="path-1"></path>
    </defs>
    <g id="Frame" stroke="none" fill="none" xlink:href="#path-1" fill-rule="evenodd">
        <use fill="#25201B" xlink:href="#path-1"></use>
        <g id="&amp;" stroke-width="1" transform="translate(-70, -31)" fill="#C9A866">
            <path d="M540.466135,128.632894 C555.977424,136.146195 567.093847,144.436734 573.815405,153.504511 C582.605135,165.68124 587,180.189683 587,197.02984 C587,212.574601 583.639221,227.536433 576.917663,241.915337 C570.196104,256.29424 561.471005,267.499422 550.742364,275.530881 C540.013723,283.562341 526.505976,289.521166 510.219124,293.407356 C499.1027,296.257229 474.026118,301.050197 434.989376,307.78626 C450.500664,314.263243 462.0695,323.136711 469.695883,334.406662 C477.322266,345.676613 481.135458,359.343049 481.135458,375.405968 C481.135458,397.168633 474.801682,418.542679 462.13413,439.528105 C449.466578,460.513532 430.917663,479.555864 406.487384,496.655101 C382.057105,513.754337 353.813634,527.744622 321.756972,538.625954 C281.169101,552.875318 239.417884,560 196.50332,560 C133.16556,560 85.0805666,545.556327 52.24834,516.66898 C19.4161133,487.781633 3,451.316216 3,407.272727 C3,372.556095 13.8579017,342.632431 35.5737052,317.501735 C63.4940239,285.375896 106.279327,260.2452 163.929615,242.109646 C151.262063,240.296091 141.050465,237.187139 133.294821,232.78279 C119.851704,225.528568 109.316954,215.748323 101.690571,203.442054 C94.0641877,191.135785 90.250996,176.433033 90.250996,159.333796 C90.250996,139.643766 95.9384683,120.601434 107.313413,102.206801 C115.844622,88.734675 130.580345,73.7080731 151.520584,57.1269951 C172.460823,40.5459172 192.237716,27.59195 210.851262,18.2650937 C235.410801,6.08836456 262.167773,0 291.122178,0 C307.150509,0 322.726428,1.8135554 337.849934,5.4406662 C352.97344,9.06777701 367.515272,14.5084432 381.475432,21.7626648 C378.890217,29.5350451 376.692784,37.9551238 374.883134,47.0229008 C373.590527,53.7589637 370.229748,76.8170252 364.800797,116.197085 C364.800797,117.492482 364.930058,119.306037 365.188579,121.637752 L341.146082,121.637752 L339.594954,74.6148508 C328.47853,63.9925977 316.845064,56.0906778 304.694555,50.9090909 C292.544046,45.727504 278.713147,43.1367106 263.201859,43.1367106 C234.764498,43.1367106 211.756087,51.4920194 194.176627,68.2026371 C176.597167,84.9132547 167.807437,105.445293 167.807437,129.798751 C167.807437,153.374971 175.821602,173.065001 191.849934,188.868841 C207.878265,204.672681 228.301461,212.574601 253.119522,212.574601 C258.806994,212.574601 266.82116,211.667823 277.162019,209.854268 C271.216025,229.544298 267.725985,245.218598 266.691899,256.877169 C257.643648,255.063613 249.370961,254.156836 241.873838,254.156836 C214.987605,254.156836 190.040283,259.597502 167.031873,270.478834 C144.023462,281.360167 126.573263,297.034467 114.681275,317.501735 C102.789287,337.969003 96.8432935,360.638446 96.8432935,385.510062 C96.8432935,423.594726 110.22178,455.072866 136.978752,479.944483 C163.735724,504.8161 201.156707,517.251908 249.2417,517.251908 C282.849491,517.251908 311.739265,511.163544 335.911023,498.986815 C360.08278,486.810086 378.437804,471.394865 390.976096,452.741152 C403.514387,434.087439 409.783533,414.26787 409.783533,393.282443 C409.783533,380.069396 406.875166,367.957437 401.058433,356.946565 C395.2417,345.935693 387.098274,337.709924 376.628154,332.269257 C366.158035,326.828591 355.494024,324.108258 344.636122,324.108258 C335.846392,324.108258 327.638336,325.792274 320.011952,329.160305 C312.385569,332.528337 306.181054,336.932686 301.398406,342.373352 C296.615759,347.814018 292.673307,354.550081 289.571049,362.581541 C288.536963,365.690493 286.468792,374.369651 283.366534,388.619015 L263.977424,388.619015 L272.508632,303.900069 C287.761399,289.650706 304.112882,279.093222 321.563081,272.22762 C339.01328,265.362017 370.359008,259.079343 415.600266,253.379598 C447.398406,249.234328 468.209385,246.254916 478.033201,244.44136 C502.075697,239.777932 518.814962,234.790655 528.250996,229.479528 C537.68703,224.168402 544.73174,217.756188 549.385126,210.242887 C554.038513,202.729586 556.365206,194.698126 556.365206,186.148508 C556.365206,177.080731 554.038513,169.308351 549.385126,162.831367 C544.73174,156.354384 537.880921,151.561416 528.832669,148.452464 L528.832669,143.011797 L540.466135,128.632894 Z" id="Path" fill-rule="nonzero"></path>
        </g>
    </g>
</svg>